<svg width="140" height="140" viewBox="0 0 140 140" fill="none" xmlns="http://www.w3.org/2000/svg">
<g clip-path="url(#clip0_98_128)">
<path d="M140 70C140 108.66 108.66 140 70 140C31.3401 140 0 108.66 0 70C0 31.3401 31.3401 0 70 0C108.66 0 140 31.3401 140 70Z" fill="#012CB3"/>
<path d="M35.0001 9.40002C1.50006 28.7 -9.89994 71.5 9.40006 105C28.7001 138.5 71.5001 149.9 105 130.6L35.0001 9.40002Z" fill="#012CB3"/>
<path d="M105 130.6C138.5 111.3 149.9 68.5 130.6 35C111.3 1.5 68.5 -9.9 35 9.4L105 130.6Z" fill="#436DF1"/>
<path d="M44.7161 91.2974C40.9561 91.2974 39.9561 88.2374 39.9561 84.5574C39.9561 80.8174 40.9561 77.8174 44.7161 77.8174C48.4761 77.8174 49.4761 80.8174 49.4761 84.5574C49.4761 88.2374 48.4761 91.2974 44.7161 91.2974ZM44.7161 89.4574C46.9361 89.4574 47.4961 87.1974 47.4961 84.5574C47.4961 81.8974 46.9361 79.6774 44.7161 79.6774C42.4961 79.6774 41.9161 81.8974 41.9161 84.5574C41.9161 87.1974 42.4961 89.4574 44.7161 89.4574Z" fill="white"/>
<path d="M36.0666 85.0774L32.6266 89.1774H37.7666V91.0574H29.3866V90.1374L34.3066 84.1774C35.0866 83.2374 35.6066 82.2574 35.6066 81.6974C35.6066 80.4774 34.7266 79.6774 33.3866 79.6774C32.0466 79.6774 31.1466 80.4574 31.0266 81.6374L29.2666 81.2774C29.5266 79.1974 31.0866 77.8174 33.4066 77.8174C35.9266 77.8174 37.5666 79.3774 37.5666 81.6974C37.5666 82.7774 36.9266 84.0774 36.0666 85.0774Z" fill="white"/>
<path d="M96.7033 85.0774L93.2633 89.1774H98.4033V91.0574H90.0233V90.1374L94.9433 84.1774C95.7233 83.2374 96.2433 82.2574 96.2433 81.6974C96.2433 80.4774 95.3633 79.6774 94.0233 79.6774C92.6833 79.6774 91.7833 80.4574 91.6633 81.6374L89.9033 81.2774C90.1633 79.1974 91.7233 77.8174 94.0433 77.8174C96.5633 77.8174 98.2033 79.3774 98.2033 81.6974C98.2033 82.7774 97.5633 84.0774 96.7033 85.0774Z" fill="white"/>
<path fill-rule="evenodd" clip-rule="evenodd" d="M57.783 25C61.0625 25 63.6497 27.7284 63.3228 30.8074H53.9549C54.1116 32.6096 55.6925 34.0742 57.77 34.0742C59.3379 34.0742 60.6577 33.148 61.1673 31.9215H63.1141C62.4607 34.0617 60.3572 35.701 57.783 35.701C54.5689 35.701 52.1909 33.2227 52.1909 30.3569C52.1909 27.4908 54.5689 25 57.783 25ZM91.0677 25C93.0641 25 94.301 26.2763 94.3142 28.1914L92.6137 28.1665C92.6005 27.2278 92.0851 26.5642 91.0677 26.5642C90.1916 26.5642 89.6374 27.0901 89.6374 27.8156C89.6374 28.7044 90.3846 28.9799 91.3636 29.3051C93.103 29.8812 94.7262 30.4067 94.7262 32.5843C94.7262 34.4741 93.1803 35.701 91.0929 35.701C88.877 35.701 87.4212 34.2489 87.4083 32.1965H89.1477C89.1734 33.2853 89.8432 34.124 91.0929 34.124C92.2013 34.124 92.9356 33.4728 92.9356 32.5594C92.9356 31.4831 92.0207 31.1828 90.7322 30.7696C89.0444 30.2313 87.898 29.4428 87.898 27.7911C87.898 26.239 89.2378 25 91.0677 25ZM80.5218 25.1754C82.3775 25.1754 83.8542 26.0421 84.5467 27.3426V25.349H86.3107V35.5401H84.5467V33.5338C83.8542 34.822 82.3775 35.701 80.5218 35.701C77.5029 35.701 75.1508 33.3607 75.1508 30.4261C75.1508 27.5035 77.5029 25.1754 80.5218 25.1754ZM42.4032 25.1754V26.8046H40.0846V35.4379H38.3194V26.8046H36V25.1754H42.4032ZM45.0746 25.1754V29.3474H49.0494V25.1754H50.8188V35.4379H49.0494V30.967H45.0746V35.4379H43.3179V25.1754H45.0746ZM70.454 25.1754C72.8767 25.1754 74.0879 26.0362 74.0879 27.894C74.0879 28.8915 73.6006 29.6023 72.7978 29.9387C73.9958 30.2382 74.6935 31.1734 74.6935 32.3453C74.6935 34.3527 73.3244 35.4379 70.3624 35.4379H67.65V25.1754H70.454ZM97.6721 25.1754V29.3474H101.647V25.1754H103.416V35.4379H101.647V30.9666H97.6721V35.4379H95.9154V25.1754H97.6721ZM80.7439 26.8349C78.6141 26.8349 76.9416 28.4198 76.9416 30.4261C76.9416 32.432 78.6141 34.0292 80.7439 34.0292C82.8612 34.0292 84.5337 32.432 84.5337 30.4261C84.5337 28.4198 82.8742 26.8349 80.7439 26.8349ZM70.4937 30.7746H69.3615V33.8668H70.3227C72.0604 33.8668 72.8632 33.4924 72.8632 32.3329C72.8632 31.2358 72.0735 30.7746 70.4937 30.7746ZM70.4937 26.6469H69.3615V29.4023H70.4937C71.718 29.4023 72.3894 29.0287 72.3894 28.056C72.3894 27.0089 71.7442 26.6469 70.4937 26.6469ZM57.77 26.6019C55.954 26.6019 54.5039 27.8035 54.1116 29.3054H61.4284C61.0625 27.8035 59.573 26.6019 57.77 26.6019Z" fill="white"/>
<path d="M48.7964 111.93C49.8437 111.617 50.123 110.677 50.123 109.982C50.123 108.565 49.0198 107.557 47.3023 107.557H43.4902V116.943H47.5955C49.718 116.943 50.6257 115.554 50.6257 114.26C50.6257 113.197 50.0252 112.134 48.7964 111.93ZM47.1906 109.233C47.8748 109.233 48.182 109.682 48.182 110.255C48.182 110.895 47.805 111.29 47.1906 111.29H45.4312V109.233H47.1906ZM47.3163 115.268H45.4312V112.87H47.3442C48.2658 112.87 48.6707 113.483 48.6707 114.069C48.6707 114.695 48.2239 115.268 47.3163 115.268Z" fill="white"/>
<path d="M54.3357 115.268V113.17H57.9244V111.467H54.3357V109.233H58.4271V107.557H52.3948V116.943H58.5527V115.268H54.3357Z" fill="white"/>
<path d="M63.3314 117.066C65.1466 117.066 66.7804 116.085 66.7804 114.219C66.7804 112.625 65.5097 111.876 64.0575 111.481L62.9823 111.181C61.9769 110.908 61.9071 110.418 61.9071 110.186C61.9071 109.56 62.4796 109.11 63.2336 109.11C64.0714 109.11 64.5462 109.628 64.5462 110.295H66.4871C66.4871 108.511 65.0908 107.435 63.2755 107.435C61.4323 107.435 59.9522 108.552 59.9522 110.227C59.9522 111.072 60.3292 112.312 62.4377 112.856L63.6106 113.183C64.4345 113.429 64.8255 113.796 64.8255 114.314C64.8255 114.982 64.253 115.417 63.3872 115.417C62.4935 115.417 61.8233 114.859 61.8093 114.178H59.8684C59.8684 115.84 61.2787 117.066 63.3314 117.066Z" fill="white"/>
<path d="M74.6891 107.557H67.442V109.233H70.0951V116.943H72.0361V109.233H74.6891V107.557Z" fill="white"/>
<path d="M83.3138 117.066C86.0367 117.066 88.215 114.913 88.215 112.257C88.215 109.587 86.0367 107.435 83.3138 107.435C80.5769 107.435 78.4265 109.587 78.4265 112.257C78.4265 114.913 80.5769 117.066 83.3138 117.066ZM83.3138 115.295C81.5823 115.295 80.3674 113.946 80.3674 112.257C80.3674 110.568 81.5823 109.219 83.3138 109.219C85.0313 109.219 86.2601 110.568 86.2601 112.257C86.2601 113.946 85.0313 115.295 83.3138 115.295Z" fill="white"/>
<path d="M95.9251 109.233V107.557H89.9766V116.943H91.9176V113.156H95.1013V111.494H91.9176V109.233H95.9251Z" fill="white"/>
<path d="M107.42 86.76C107.42 85.14 106.22 84.34 104.8 84.34C103.74 84.34 102.84 84.62 101.64 85.52L100.42 84.62L101.54 78H108.68V79.94H103.2L102.58 83.24C103.16 82.78 104.22 82.5 105.02 82.5C107.44 82.5 109.44 83.96 109.44 86.76C109.44 89.48 107.44 91.26 104.42 91.26C102.6 91.26 100.86 90.12 100 88.36C100.36 88.14 101.38 87.56 101.74 87.36C102.28 88.54 103.28 89.26 104.42 89.26C106.44 89.26 107.42 88.12 107.42 86.76Z" fill="white"/>
<path fill-rule="evenodd" clip-rule="evenodd" d="M83.5049 55.4795H90.2451V57.1074C90.245 64.3709 85.5777 70.8073 78.6895 73.0381L78.0918 73.2314L76.1709 75.4355C75.6944 75.9823 75.1647 76.4805 74.5898 76.9219L72.4199 78.5869L73.5137 81.9893C73.9851 83.4563 74.6065 84.8706 75.3682 86.209L75.7275 86.8408L77.166 89.1514H62.0791L63.5176 86.8408L63.876 86.209C64.6378 84.8706 65.26 83.4564 65.7314 81.9893L66.8232 78.5869L64.6553 76.9219C64.0802 76.4804 63.5499 75.9824 63.0732 75.4355L61.1523 73.2314L60.5547 73.0381C53.8821 70.8768 49.294 64.7691 49.0137 57.7861L49 57.1074V55.4795H55.7393V52H83.5049V55.4795ZM51.2451 57.7998L51.3154 58.3613C51.8238 62.4433 54.0136 66.1282 57.3564 68.5254L60.3271 70.6562L59.3145 67.8076C58.3603 65.1253 57.6256 62.3687 57.1182 59.5674L56.7979 57.7998H51.2451ZM82.3232 58.1992L81.1748 63.7686L78.7266 70.6562L81.6973 68.5254C85.0401 66.1282 87.2299 62.4433 87.7383 58.3613L87.8086 57.7998H82.4062L82.3232 58.1992Z" fill="white"/>
<path d="M58 90.1441H81V96.0107H58V90.1441Z" fill="white"/>
</g>
<defs>
<clipPath id="clip0_98_128">
<rect width="140" height="140" fill="white"/>
</clipPath>
</defs>
</svg>
